<svg xmlns="http://www.w3.org/2000/svg" xmlns:xlink="http://www.w3.org/1999/xlink" viewBox="0 0 344.738 287.042">
    <path d="M159.17 7.296L2.015 265.25c-2.688 4.512-2.688 10.08 0 14.496 2.688 4.512 7.776 7.296 13.248 7.296h314.21c5.472 0 10.56-2.784 13.248-7.296 2.688-4.512 2.688-9.984 0-14.496L185.665 7.296C182.977 2.784 177.89 0 172.417 0c-5.472 0-10.56 2.784-13.248 7.296z" fill="#ffaf00"/>
    <g transform="matrix(.614 0 0 .614 80.741 85.663)">
        <path d="M385.98 297.154l-245.615.316c-2.224-.2-3.837-.708-2.993-3.362l90.25-115.688c3.12-4.423 7.83-6.815 12.567-6.68l45.35-.095c7.356-.004 10.192 2.125 14.24 7.207l88.374 114.12c.81 2.007.085 4.014-2.174 4.182z"/>
        <path d="M125.665 49.226l35.18 18.466c5.48 2.876 7.762 10.037 5.1 15.995l-41.233 92.255c-2.664 5.96-9.265 8.458-14.744 5.582l-35.18-18.466c-5.48-2.876-7.764-10.037-5.1-15.995l41.234-92.255c2.662-5.96 9.263-8.458 14.743-5.582z" fill="#000002"/>
        <path d="M71.647 46.625h81.178c5.197 0 9.41 3.583 9.41 8v16.5c0 4.42-4.214 8-9.41 8H71.647c-5.198 0-9.412-3.58-9.412-8v-16.5c0-4.418 4.214-8 9.412-8z"/>
        <path d="M26.867 118.678l35.457-66.826c2.27-4.28 6.38-5.715 9.177-3.206l10.45 9.367c2.8 2.51 3.228 8.01.957 12.29L47.45 137.13c-2.27 4.278-6.38 5.715-9.177 3.206l-10.45-9.367c-2.797-2.51-3.226-8.012-.956-12.292z"/>
        <path d="M59.08 125.656l210.06 110.75c13.452 7.09 23.61 14.378 22.69 16.274l-3.44 7.083c-.92 1.896-12.57-2.316-26.02-9.407L52.31 139.606c-13.45-7.09-23.61-14.378-22.69-16.274l3.44-7.083c.92-1.897 12.57 2.314 26.02 9.406z"/>
        <path d="M154.473 179.08l-6.267-109.37c-.4-7.004 2.244-12.91 5.907-13.193l13.682-1.056c3.665-.282 6.96 5.167 7.36 12.17L181.424 177c.4 7.002-2.244 12.908-5.907 13.19l-13.682 1.056c-3.665.285-6.96-5.163-7.36-12.166z"/>
        <ellipse cx="181.428" cy="31.625" rx="29.924" ry="31.616"/>
        <path d="M101.8 228.48l-14.83-61.613c-.95-3.946 1.674-7.725 5.86-8.44l15.63-2.68c4.186-.715 8.35 1.9 9.3 5.847l14.828 61.612c.95 3.946-1.673 7.725-5.858 8.44l-15.632 2.68c-4.187.716-8.35-1.902-9.298-5.847z"/>
        <path d="M102.25 288.088l-.483-63.512c-.03-4.066 3.38-7.098 7.613-6.77l15.816 1.22c4.236.328 7.694 3.89 7.725 7.956l.48 63.51c.032 4.067-3.376 7.098-7.61 6.77l-15.818-1.22c-4.234-.325-7.692-3.888-7.723-7.954z"/>
        <path d="M3.303 267.255l62.93-110.552c4.03-7.08 10.178-10.79 13.73-8.292l13.27 9.336c3.55 2.5 3.164 10.265-.865 17.343L29.436 285.64c-4.03 7.08-10.177 10.792-13.73 8.293L2.44 284.598c-3.553-2.5-3.167-10.265.863-17.343z"/>
    </g>
</svg>
