<svg xmlns="http://www.w3.org/2000/svg" viewBox="0 0 280 136">
<g fill="#dc322f" transform="scale(0.265625,0.265625)">
	<path d="M256,0L164,92L187,357L214,101C228,103,242,104,256,104C270,104,284,103,298,101L325,357L348,92L256,0z"/>
	<polygon points="0,256 90,166 128,384"/>
	<polygon points="512,256 422,166 384,384"/>
	<path d="M256,316L232,450C220,450,208,451,196,452L256,512L316,452C304,451,292,450,280,450L256,316z"/>
</g>
<g fill="#93a1a1">
	<path d="m 169.31,68.002 h -6.34 l -6.047,-21.265 c -0.26,-0.926 -0.586,-2.26 -0.976,-4 -0.39,-1.755 -0.626,-2.974 -0.707,-3.657 -0.163,1.04 -0.43,2.39 -0.805,4.048 -0.357,1.658 -0.658,2.894 -0.902,3.707 l -5.9,21.167 H 141.29 L 136.682,50.152 132,32.348 h 5.95 l 5.097,20.777 c 0.797,3.332 1.366,6.275 1.707,8.827 0.18,-1.382 0.447,-2.926 0.805,-4.633 0.355,-1.707 0.68,-3.09 0.973,-4.146 l 5.804,-20.826 h 5.78 l 5.95,20.923 c 0.57,1.936 1.17,4.83 1.804,8.68 0.245,-2.322 0.83,-5.28 1.757,-8.874 l 5.073,-20.73 h 5.902 L 169.312,68"/>
	<path d="m 188.747,68.002 h -5.73 v -26.97 h 5.73 V 68 m -6.072,-34.116 c 0,-1.024 0.276,-1.813 0.83,-2.366 0.568,-0.552 1.372,-0.83 2.413,-0.83 1.008,0 1.788,0.278 2.34,0.83 0.57,0.553 0.855,1.342 0.855,2.366 0,0.975 -0.285,1.748 -0.854,2.317 -0.555,0.553 -1.335,0.83 -2.343,0.83 -1.04,0 -1.845,-0.277 -2.414,-0.83 -0.553,-0.57 -0.83,-1.34 -0.83,-2.316"/>
	<path d="m 202.696,68.002 h -5.73 V 30.057 h 5.73 v 37.945"/>
	<path d="m 216.645,68.002 h -5.73 V 30.057 h 5.73 v 37.945"/>
	<path d="m 220.766,41.03 h 6.243 l 5.485,15.29 c 0.83,2.18 1.382,4.228 1.658,6.146 h 0.195 c 0.145,-0.894 0.414,-1.975 0.804,-3.243 0.39,-1.284 2.455,-7.348 6.194,-18.192 h 6.194 L 236.005,71.59 c -2.095,5.608 -5.59,8.41 -10.485,8.41 -1.267,0 -2.502,-0.138 -3.706,-0.414 V 75.05 c 0.862,0.195 1.846,0.292 2.95,0.292 2.765,0 4.708,-1.6 5.83,-4.804 l 1,-2.536 -10.828,-26.97"/>
	<path d="M 266.88,48.664 H 280 v 17.9 c -2.146,0.698 -4.21,1.194 -6.194,1.487 -1.967,0.295 -4.097,0.44 -6.39,0.44 -5.397,0 -9.56,-1.592 -12.485,-4.78 -2.924,-3.202 -4.39,-7.713 -4.39,-13.533 0,-5.74 1.653,-10.226 4.953,-13.46 3.3,-3.253 7.844,-4.88 13.632,-4.88 3.723,0 7.25,0.717 10.583,2.147 l -2.048,4.853 c -2.895,-1.333 -5.79,-2 -8.683,-2 -3.804,0 -6.81,1.195 -9.022,3.585 -2.21,2.39 -3.317,5.66 -3.317,9.805 0,4.357 0.992,7.673 2.975,9.95 2,2.26 4.87,3.39 8.608,3.39 1.888,0 3.904,-0.237 6.05,-0.708 v -9.195 h -7.39 v -5"/>
</g>
<g fill="#073642">
	<path d="m 141,73.652 h 7.998 c 3.645,0 6.287,0.522 7.928,1.565 1.652,1.03 2.478,2.677 2.478,4.94 0,1.534 -0.363,2.794 -1.09,3.78 -0.714,0.983 -1.67,1.575 -2.865,1.774 v 0.178 c 1.627,0.363 2.8,1.043 3.514,2.04 0.726,0.995 1.09,2.32 1.09,3.97 0,2.345 -0.85,4.173 -2.55,5.486 -1.687,1.312 -3.984,1.97 -6.89,1.97 H 141 v -25.7 m 5.45,10.177 h 3.163 c 1.477,0 2.543,-0.227 3.2,-0.685 0.667,-0.457 1,-1.212 1,-2.267 0,-0.984 -0.362,-1.688 -1.088,-2.11 -0.715,-0.433 -1.852,-0.65 -3.41,-0.65 h -2.866 v 5.713 m 0,4.325 v 6.698 H 150 c 1.5,0 2.607,-0.288 3.322,-0.862 0.715,-0.573 1.073,-1.452 1.073,-2.636 0,-2.132 -1.524,-3.2 -4.57,-3.2 h -3.376"/>
	<path d="m 170.127,99.352 h -5.36 V 72 h 5.36 v 27.352"/>
	<path d="m 180.006,89.49 c 0,1.946 0.316,3.416 0.95,4.412 0.644,0.996 1.687,1.494 3.128,1.494 1.43,0 2.455,-0.492 3.076,-1.476 0.633,-0.996 0.95,-2.473 0.95,-4.43 0,-1.945 -0.317,-3.404 -0.95,-4.377 -0.633,-0.972 -1.67,-1.46 -3.11,-1.46 -1.43,0 -2.462,0.488 -3.095,1.46 -0.633,0.96 -0.95,2.42 -0.95,4.377 m 13.59,0 c 0,3.2 -0.845,5.7 -2.533,7.506 -1.687,1.805 -4.037,2.707 -7.048,2.707 -1.887,0 -3.55,-0.41 -4.993,-1.23 -1.44,-0.832 -2.546,-2.022 -3.32,-3.57 -0.773,-1.546 -1.16,-3.35 -1.16,-5.413 0,-3.21 0.838,-5.707 2.514,-7.488 1.676,-1.78 4.03,-2.672 7.066,-2.672 1.886,0 3.55,0.41 4.99,1.23 1.443,0.82 2.55,2 3.324,3.534 0.773,1.535 1.16,3.334 1.16,5.396"/>
	<path d="m 215.127,79.7 v 2.724 l -3.076,0.79 c 0.564,0.88 0.846,1.864 0.846,2.954 0,2.11 -0.74,3.756 -2.215,4.94 -1.464,1.17 -3.503,1.757 -6.117,1.757 l -0.966,-0.053 -0.79,-0.088 c -0.552,0.422 -0.827,0.89 -0.827,1.407 0,0.775 0.983,1.16 2.952,1.16 h 3.34 c 2.156,0 3.796,0.465 4.92,1.39 1.138,0.926 1.706,2.286 1.706,4.078 0,2.297 -0.96,4.08 -2.882,5.344 -1.91,1.267 -4.66,1.9 -8.245,1.9 -2.74,0 -4.837,-0.48 -6.29,-1.442 -1.442,-0.95 -2.163,-2.285 -2.163,-4.008 0,-1.183 0.37,-2.173 1.108,-2.97 0.738,-0.797 1.822,-1.365 3.252,-1.705 -0.55,-0.235 -1.03,-0.616 -1.442,-1.143 -0.41,-0.54 -0.615,-1.107 -0.615,-1.705 0,-0.75 0.216,-1.37 0.65,-1.864 0.433,-0.504 1.06,-0.996 1.88,-1.477 -1.03,-0.446 -1.85,-1.16 -2.46,-2.145 -0.598,-0.985 -0.897,-2.145 -0.897,-3.48 0,-2.145 0.697,-3.804 2.092,-4.975 1.394,-1.172 3.386,-1.758 5.976,-1.758 0.553,0 1.203,0.053 1.953,0.158 0.762,0.094 1.25,0.164 1.46,0.21 h 6.855 m -15.17,22.43 c 0,0.74 0.352,1.32 1.055,1.74 0.715,0.423 1.71,0.634 2.988,0.634 1.923,0 3.43,-0.264 4.52,-0.79 1.09,-0.528 1.633,-1.25 1.633,-2.163 0,-0.74 -0.322,-1.25 -0.966,-1.53 -0.645,-0.28 -1.64,-0.42 -2.99,-0.42 h -2.777 c -0.984,0 -1.81,0.227 -2.48,0.684 -0.655,0.47 -0.983,1.084 -0.983,1.846 m 1.95,-15.997 c 0,1.066 0.24,1.91 0.722,2.53 0.49,0.622 1.234,0.933 2.23,0.933 1.01,0 1.746,-0.31 2.215,-0.932 0.47,-0.62 0.703,-1.465 0.703,-2.53 0,-2.368 -0.973,-3.552 -2.92,-3.552 -1.967,0 -2.952,1.184 -2.952,3.55"/>
</g>
</svg>
